<?xml version="1.0" standalone="no"?>
<!DOCTYPE svg PUBLIC "-//W3C//DTD SVG 20010904//EN"
 "http://www.w3.org/TR/2001/REC-SVG-20010904/DTD/svg10.dtd">
<svg version="1.0" xmlns="http://www.w3.org/2000/svg"
 width="559.000000pt" height="559.000000pt" viewBox="0 0 559.000000 559.000000"
 preserveAspectRatio="xMidYMid meet">

<g transform="translate(0.000000,559.000000) scale(0.100000,-0.100000)"
fill="#000000" stroke="none">
<path d="M3508 5061 c-31 -31 -115 -97 -187 -145 -218 -146 -270 -204 -331
-369 -39 -104 -81 -156 -186 -228 -41 -29 -73 -57 -71 -63 2 -6 49 -34 104
-62 56 -27 127 -70 159 -95 68 -52 144 -151 144 -186 0 -18 -18 -43 -58 -82
-32 -31 -84 -99 -117 -151 -79 -130 -134 -197 -264 -323 -61 -59 -111 -114
-111 -122 0 -17 13 -29 58 -55 37 -23 41 -50 11 -79 -20 -19 -206 -91 -235
-91 -8 0 2 -17 25 -40 21 -22 62 -86 92 -142 89 -171 165 -232 330 -266 109
-23 187 -10 364 60 167 66 229 82 299 76 69 -6 146 -44 169 -84 10 -18 19 -60
22 -99 5 -77 9 -85 25 -56 6 13 21 21 35 21 20 0 25 5 25 25 0 19 5 25 22 25
19 0 8 14 -56 79 l-79 79 19 39 c11 21 26 38 34 38 8 0 42 -41 75 -92 33 -51
63 -92 66 -93 4 0 9 9 12 20 3 14 14 20 31 20 29 0 30 3 16 30 -8 15 -5 20 18
28 l27 9 -35 7 c-86 19 -168 95 -190 178 -11 38 -9 41 45 116 223 305 290 764
169 1156 -37 119 -125 289 -202 390 -110 145 -108 139 -93 237 16 102 6 143
-32 134 -40 -10 -52 15 -37 83 16 76 4 126 -31 129 -17 1 -39 -14 -81 -56z
m-180 -527 c35 -24 45 -59 27 -93 -26 -52 -81 -56 -119 -10 -31 36 -28 62 10
97 30 26 51 28 82 6z"/>
<path d="M1125 4006 c-58 -27 -88 -57 -110 -108 -19 -46 -20 -138 -1 -163 13
-18 15 -18 66 3 74 31 172 46 255 39 73 -7 126 -23 317 -96 119 -46 148 -50
148 -23 0 13 -28 33 -97 70 -131 68 -238 103 -343 110 l-85 7 -6 52 c-4 28
-15 69 -25 90 -24 47 -51 52 -119 19z"/>
<path d="M660 3794 c-87 -78 -132 -234 -96 -329 l18 -45 -46 -72 c-49 -77 -87
-182 -107 -294 -17 -96 -6 -383 19 -499 34 -158 164 -481 269 -670 266 -477
636 -826 1143 -1079 211 -105 361 -157 675 -235 331 -82 647 -91 970 -26 742
149 1291 566 1627 1237 70 140 121 289 144 418 22 127 15 283 -15 361 -62 162
-221 240 -486 241 -275 0 -447 -69 -504 -202 -12 -27 -28 -100 -36 -161 -16
-122 -36 -177 -85 -232 -32 -37 -63 -47 -76 -26 -11 19 -24 -12 -24 -63 0
-132 -56 -294 -121 -353 -47 -42 -102 -47 -155 -14 -88 54 -138 248 -94 363 8
21 6 21 -179 17 -102 -2 -307 -4 -456 -5 -148 -1 -281 -3 -293 -4 l-24 -2 22
-32 c44 -67 90 -173 90 -209 0 -42 -24 -69 -61 -69 -61 0 -241 77 -333 143
l-29 21 -64 -70 c-52 -57 -62 -73 -58 -94 35 -153 -2 -189 -102 -97 l-44 40
-50 -11 c-28 -7 -70 -12 -93 -12 -23 0 -47 -5 -54 -12 -7 -7 -12 -40 -12 -79
0 -37 -5 -113 -11 -169 -11 -113 -35 -174 -74 -192 -20 -9 -29 -7 -55 15 -67
57 -114 135 -145 241 -17 58 -17 188 0 257 6 24 0 32 -67 81 -159 119 -284
291 -333 461 -11 38 -22 57 -32 57 -22 0 -86 -53 -225 -187 -137 -130 -159
-147 -188 -138 -33 11 -40 36 -29 106 25 155 107 342 187 423 67 70 137 100
216 94 33 -3 67 -3 74 -1 6 3 28 29 48 60 20 30 59 73 85 96 27 23 49 46 49
51 0 5 -20 28 -44 52 -53 50 -62 84 -45 170 7 35 10 66 8 69 -3 2 -21 0 -40
-5 -19 -6 -110 -24 -204 -41 -231 -41 -324 -85 -406 -195 -23 -29 -45 -54 -50
-54 -14 0 -15 52 -2 135 33 214 191 372 437 435 43 11 140 25 215 30 147 12
224 27 294 60 72 34 68 46 -26 75 -121 37 -231 48 -397 42 -104 -4 -166 -11
-220 -26 -106 -30 -103 -30 -113 9 -21 81 -40 121 -73 150 -45 39 -65 38 -114
-6z m3951 -1154 c21 -12 25 -50 7 -68 -39 -39 -100 17 -63 58 21 23 29 24 56
10z m363 -36 c30 -30 13 -74 -29 -74 -42 0 -59 44 -29 74 8 9 22 16 29 16 7 0
21 -7 29 -16z m-126 -138 c112 -57 173 -149 174 -261 1 -112 -57 -195 -137
-195 -51 0 -86 21 -140 85 -26 30 -53 55 -59 55 -7 0 -31 -16 -54 -36 -23 -19
-56 -39 -74 -45 -82 -23 -168 45 -168 135 0 103 96 233 202 275 75 30 183 25
256 -13z m-593 -898 c93 -13 259 -52 370 -85 71 -22 97 -35 127 -65 33 -33 38
-44 38 -83 0 -38 -6 -51 -36 -85 -20 -22 -66 -54 -102 -72 -57 -28 -78 -33
-163 -36 -125 -5 -219 15 -336 72 -198 97 -298 211 -262 298 29 70 147 89 364
56z"/>
<path d="M2002 3654 c-31 -21 -31 -83 1 -112 50 -47 127 -11 127 59 0 59 -75
90 -128 53z"/>
</g>
</svg>
