<?xml version="1.0" standalone="no"?>
<!DOCTYPE svg PUBLIC "-//W3C//DTD SVG 20010904//EN"
 "http://www.w3.org/TR/2001/REC-SVG-20010904/DTD/svg10.dtd">
<svg version="1.0" xmlns="http://www.w3.org/2000/svg"
 width="134.000000pt" height="134.000000pt" viewBox="0 0 134.000000 134.000000"
 preserveAspectRatio="xMidYMid meet">

<g transform="translate(0.000000,134.000000) scale(0.100000,-0.100000)"
fill="#000000" stroke="none">
<path d="M770 1166 c-30 -23 -63 -57 -72 -76 -10 -19 -27 -43 -38 -52 -21 -17
-21 -17 9 -33 35 -18 69 -63 55 -73 -5 -4 -18 -20 -28 -35 -9 -16 -33 -46 -53
-68 -29 -32 -33 -42 -23 -54 13 -15 13 -15 -34 -29 -21 -7 19 -78 53 -94 34
-16 52 -15 116 7 l55 20 13 -25 13 -25 24 26 c21 22 22 29 12 45 -10 17 -8 26
12 58 35 53 49 122 37 187 -11 58 -45 137 -67 156 -8 7 -12 20 -8 35 4 14 2
24 -4 24 -6 0 -12 11 -14 24 -3 24 -4 24 -58 -18z m40 -112 c0 -19 -28 -30
-42 -16 -8 8 -8 15 1 26 14 17 41 10 41 -10z"/>
<path d="M268 959 c-10 -6 -18 -21 -18 -34 0 -21 3 -22 28 -16 19 6 26 13 24
27 -5 28 -15 34 -34 23z"/>
<path d="M162 908 c-7 -7 -12 -27 -12 -45 0 -19 -7 -48 -16 -65 -12 -23 -15
-51 -12 -108 3 -68 8 -88 50 -171 76 -153 189 -250 351 -303 141 -46 274 -44
390 6 l48 21 -21 22 c-11 12 -22 35 -23 51 -2 28 0 29 48 34 28 3 60 11 73 18
34 20 26 4 -10 -18 -18 -11 -48 -20 -65 -20 -38 0 -41 -14 -14 -49 l19 -25 52
34 c97 62 180 201 180 302 0 49 -3 59 -26 77 -30 24 -100 28 -152 10 -30 -10
-52 -48 -52 -89 0 -28 -24 -42 -52 -31 -16 6 -31 5 -48 -5 -16 -9 -60 -13
-127 -14 l-101 0 11 -30 c15 -40 4 -47 -47 -28 -47 17 -66 10 -66 -24 0 -16
-6 -17 -40 -12 -39 6 -40 6 -40 -22 0 -44 -11 -74 -26 -74 -22 0 -44 42 -44
83 0 30 -6 44 -29 63 -16 13 -38 42 -49 64 l-19 39 -41 -34 c-39 -34 -62 -44
-62 -27 0 5 7 30 16 55 17 50 45 77 79 77 23 1 60 46 45 55 -5 3 -10 17 -10
30 0 23 0 23 -55 10 -31 -7 -64 -20 -74 -29 -25 -23 -32 -20 -25 12 14 57 79
102 148 102 39 0 66 8 66 20 0 13 -85 21 -128 12 -38 -9 -41 -8 -46 14 -7 26
-25 31 -44 12z m858 -266 c0 -13 -12 -22 -22 -16 -10 6 -1 24 13 24 5 0 9 -4
9 -8z m150 -7 c0 -9 -6 -12 -15 -9 -8 4 -12 10 -9 15 8 14 24 10 24 -6z m-80
-60 c31 0 62 5 70 10 13 7 13 6 2 -7 -19 -23 -135 -24 -154 -1 -11 14 -11 15
7 6 11 -5 45 -9 75 -8z m-249 -108 c-26 -53 -26 -64 -2 -77 37 -19 48 -12 48
28 0 21 8 51 17 68 10 16 14 20 10 9 -4 -11 -8 -45 -9 -75 -1 -48 -4 -55 -23
-58 -25 -4 -82 24 -82 41 -1 18 54 128 58 117 2 -6 -6 -30 -17 -53z"/>
<path d="M360 904 c56 -17 62 -17 30 1 -14 8 -36 14 -50 14 -18 0 -12 -4 20
-15z"/>
<path d="M475 879 c-10 -15 3 -25 16 -12 7 7 7 13 1 17 -6 3 -14 1 -17 -5z"/>
</g>
</svg>
